<?xml version="1.0" encoding="UTF-8" standalone="no"?>
<svg
   xmlns:dc="http://purl.org/dc/elements/1.1/"
   xmlns:cc="http://creativecommons.org/ns#"
   xmlns:rdf="http://www.w3.org/1999/02/22-rdf-syntax-ns#"
   xmlns:svg="http://www.w3.org/2000/svg"
   xmlns="http://www.w3.org/2000/svg"
   viewBox="0 0 120 140.66667"
   height="140.66667"
   width="120"
   xml:space="preserve"
   id="svg2"
   version="1.1"><metadata
     id="metadata8"><rdf:RDF><cc:Work
         rdf:about=""><dc:format>image/svg+xml</dc:format><dc:type
           rdf:resource="http://purl.org/dc/dcmitype/StillImage" /></cc:Work></rdf:RDF></metadata><defs
     id="defs6" /><g
     transform="matrix(1.3333333,0,0,-1.3333333,0,140.66667)"
     id="g10"><g
       transform="scale(0.1)"
       id="g12"><path
         id="path14"
         style="fill:#1b4d37;fill-opacity:1;fill-rule:nonzero;stroke:none"
         d="M 413.922,772.633 V 565 h 27.359 v 138.508 l 67.285,-71.465 h 12.332 l 67.286,71.465 V 565 h 27.371 V 772.684 L 514.941,665.117 413.922,772.633" /><path
         id="path16"
         style="fill:#1b4d37;fill-opacity:1;fill-rule:nonzero;stroke:none"
         d="m 595.453,830.66 -80.508,-86.051 -80.746,86.051 h -130.25 v -26.496 h 117.766 l 93.242,-99.297 92.941,99.297 h 35.317 V 565 h 27.371 v 265.66 h -75.133" /><path
         id="path18"
         style="fill:#1b4d37;fill-opacity:1;fill-rule:nonzero;stroke:none"
         d="m 309.773,666.879 c -76.019,0 -137.871,62.238 -137.871,138.742 0,76.504 61.852,138.746 137.871,138.746 33.45,0 65.364,-12.199 92.297,-35.285 l 4.469,-3.828 16.262,21.012 -3.953,3.429 c -31.047,26.934 -68.766,41.168 -109.075,41.168 -91.113,0 -165.242,-74.125 -165.242,-165.242 0,-91.109 74.129,-165.234 165.242,-165.234 16.743,0 33.227,2.519 49.114,7.5 V 565 h 27.367 v 124.941 l -8.699,-4.949 c -20.84,-11.847 -44.278,-18.113 -67.782,-18.113" /><path
         id="path20"
         style="fill:#1b4d37;fill-opacity:1;fill-rule:nonzero;stroke:none"
         d="m 303.949,752.195 h 55.906 V 735.09 c -14.468,-10.922 -30.878,-16.238 -50.082,-16.238 -46.453,0 -82.839,38.117 -82.839,86.769 0,48.656 36.386,86.77 82.839,86.77 22.372,0 40.743,-7.063 61.438,-23.618 l 4.383,-3.507 16.164,20.886 -3.945,3.379 c -22.407,19.207 -49.391,29.356 -78.04,29.356 -60.765,0 -110.207,-50.813 -110.207,-113.266 0,-62.453 49.442,-113.266 110.207,-113.266 26.106,0 53.27,10.379 74.532,28.469 l 2.047,1.742 v 56.125 h -82.403 v -26.496" /><path
         id="path22"
         style="fill:#fbc320;fill-opacity:1;fill-rule:nonzero;stroke:none"
         d="m 607.898,804.164 -92.941,-99.297 -93.242,99.297 H 303.949 v -25.473 h 82.403 v -56.125 l -2.047,-1.742 c -21.262,-18.09 -48.426,-28.469 -74.532,-28.469 -60.765,0 -110.207,50.813 -110.207,113.266 0,62.453 49.442,113.266 110.207,113.266 28.649,0 55.633,-10.149 78.04,-29.356 l 3.945,-3.379 14.781,19.102 -4.469,3.828 c -26.933,23.086 -58.847,35.285 -92.297,35.285 -76.019,0 -137.871,-62.242 -137.871,-138.746 0,-76.504 61.852,-138.742 137.871,-138.742 23.504,0 46.942,6.266 67.782,18.113 l 8.699,4.949 V 565 h 27.668 V 772.633 L 514.941,665.117 615.555,772.684 V 565 h 27.66 v 239.164 h -35.317" /><path
         id="path24"
         style="fill:#1b4d37;fill-opacity:1;fill-rule:nonzero;stroke:none"
         d="m 287.418,589.398 h 10.449 v -24.386 h 3.485 v 24.386 h 10.453 v 3.485 h -24.387 v -3.485" /><path
         id="path26"
         style="fill:#1b4d37;fill-opacity:1;fill-rule:nonzero;stroke:none"
         d="m 329.199,571.656 -8.832,21.227 h -5.082 v -27.871 h 3.543 v 23.187 l 9.649,-23.187 h 1.449 l 9.687,23.187 v -23.187 h 3.543 v 27.871 h -5.078 l -8.879,-21.227" /><path
         id="path28"
         style="fill:#1b4d37;fill-opacity:1;fill-rule:nonzero;stroke:none"
         d="m 95.8086,167.949 h 18.2074 v -48.672 c 0,-11.425 6.449,-19.2926 19.601,-19.2926 12.899,0 19.344,7.8676 19.344,19.2926 v 48.672 h 18.211 v -49.16 c 0,-20.4023 -12.016,-34.289 -37.555,-34.289 -25.797,0 -37.8084,14.0078 -37.8084,34.164 v 49.285" /><path
         id="path30"
         style="fill:#1b4d37;fill-opacity:1;fill-rule:nonzero;stroke:none"
         d="m 239.68,114.703 -37.274,53.246 H 184.871 V 85.7383 H 202 v 55.2187 l 38.355,-55.2187 h 16.454 V 167.949 H 239.68 v -53.246" /><path
         id="path32"
         style="fill:#1b4d37;fill-opacity:1;fill-rule:nonzero;stroke:none"
         d="m 270.512,85.7383 h 17.125 V 167.949 H 270.512 V 85.7383" /><path
         id="path34"
         style="fill:#1b4d37;fill-opacity:1;fill-rule:nonzero;stroke:none"
         d="m 338.191,104.723 -22.55,63.226 h -19.75 l 31.453,-82.2107 h 21.695 l 31.328,82.2107 h -19.746 l -22.43,-63.226" /><path
         id="path36"
         style="fill:#1b4d37;fill-opacity:1;fill-rule:nonzero;stroke:none"
         d="m 386.977,85.7383 h 58.234 v 13.7031 h -41.106 v 20.5506 h 37.68 v 13.703 h -37.68 v 20.555 h 41.106 v 13.699 H 386.977 V 85.7383" /><path
         id="path38"
         style="fill:#1b4d37;fill-opacity:1;fill-rule:nonzero;stroke:none"
         d="m 495.242,130.27 h -19.203 v 23.98 h 19.203 c 7.348,0 12.891,-4.691 12.891,-11.988 0,-7.301 -5.543,-11.992 -12.891,-11.992 z m 29.008,11.179 c 0,15.285 -10.359,26.5 -27.305,26.5 H 458.914 V 85.7383 h 17.125 v 27.4067 h 12.543 l 15.805,-27.4067 h 20.351 l -18.285,31.3087 c 8.777,2.094 17.797,9.859 17.797,24.402" /><path
         id="path40"
         style="fill:#1b4d37;fill-opacity:1;fill-rule:nonzero;stroke:none"
         d="m 568.953,137.898 c -9.461,2.239 -16.344,3.985 -16.344,9.582 0,4.981 4.176,8.465 12.043,8.465 7.989,0 16.84,-2.863 23.477,-9.086 l 9.711,12.942 c -8.113,7.594 -18.93,11.578 -31.957,11.578 -19.297,0 -31.094,-11.203 -31.094,-25.016 0,-18.547 17.203,-22.281 30.602,-25.39 9.464,-2.239 16.593,-4.36 16.593,-10.578 0,-4.731 -4.671,-9.336 -14.257,-9.336 -11.309,0 -20.282,5.105 -26.055,11.199 l -9.59,-13.4377 c 7.742,-7.8398 19.051,-13.1914 34.781,-13.1914 22.125,0 32.817,11.4492 32.817,26.6291 0,18.422 -17.207,22.527 -30.727,25.64" /><path
         id="path42"
         style="fill:#1b4d37;fill-opacity:1;fill-rule:nonzero;stroke:none"
         d="m 609.637,85.7383 h 17.125 V 167.949 H 609.637 V 85.7383" /><path
         id="path44"
         style="fill:#1b4d37;fill-opacity:1;fill-rule:nonzero;stroke:none"
         d="m 637.039,150.824 h 27.402 V 85.7383 h 17.129 v 65.0857 h 23.981 v 17.125 h -68.512 v -17.125" /><path
         id="path46"
         style="fill:#1b4d37;fill-opacity:1;fill-rule:nonzero;stroke:none"
         d="m 772.691,167.949 -20.707,-33.031 -20.957,33.031 H 710.574 L 743.23,119.391 V 85.7383 h 20.551 v 33.6527 l 29.364,48.558 h -20.454" /><path
         id="path48"
         style="fill:#1b4d37;fill-opacity:1;fill-rule:nonzero;stroke:none"
         d="m 151.855,422.176 h 34.04 v -16.168 c -5.219,-4.707 -14.934,-9.227 -25.911,-9.227 -21.765,0 -37.601,16.824 -37.601,39.617 0,22.797 15.836,39.625 37.601,39.625 12.594,0 22.852,-6.695 28.426,-15.195 l 21.235,11.578 c -9.18,14.289 -24.832,26.414 -49.661,26.414 -35.082,0 -63.8668,-24.246 -63.8668,-62.422 0,-37.988 28.7848,-62.593 63.8668,-62.593 21.774,0 38.864,9.043 51.098,22.797 v 46.476 h -59.227 v -20.902" /><path
         id="path50"
         style="fill:#1b4d37;fill-opacity:1;fill-rule:nonzero;stroke:none"
         d="m 386.926,396.188 c -21.52,0 -35.34,17.179 -35.34,39.597 0,22.606 13.82,39.606 35.34,39.606 21.515,0 35.512,-17 35.512,-39.606 0,-22.418 -13.997,-39.597 -35.512,-39.597 z m 61.051,39.597 c 0,36.352 -25.715,62.391 -61.051,62.391 -35.164,0 -60.879,-26.039 -60.879,-62.391 0,-36.344 25.715,-62.383 60.879,-62.383 35.336,0 61.051,26.039 61.051,62.383" /><path
         id="path52"
         style="fill:#1b4d37;fill-opacity:1;fill-rule:nonzero;stroke:none"
         d="m 228.191,373.402 h 83.918 v 21.024 h -59.531 v 27.75 h 56.024 v 21.023 h -56.024 v 31.114 h 59.531 v 21.023 H 228.191 V 373.402" /><path
         id="path54"
         style="fill:#1b4d37;fill-opacity:1;fill-rule:nonzero;stroke:none"
         d="m 517.211,440.676 h -26.914 v 33.637 h 26.914 c 10.297,0 18.062,-6.583 18.062,-16.821 0,-10.234 -7.765,-16.816 -18.062,-16.816 z m 44.703,15.355 c 0,22.668 -15.355,39.305 -40.465,39.305 H 465.09 V 373.402 h 25.207 v 42.047 h 18.461 l 23.254,-42.047 h 30.625 l -27.094,46.434 c 13.004,3.105 26.371,14.621 26.371,36.195" /><path
         id="path56"
         style="fill:#1b4d37;fill-opacity:1;fill-rule:nonzero;stroke:none"
         d="m 629.137,422.176 h 34.035 v -16.571 c -5.219,-4.707 -14.934,-9.226 -25.91,-9.226 -21.766,0 -37.602,16.82 -37.602,39.617 0,22.797 15.836,39.621 37.602,39.621 12.597,0 22.851,-6.691 28.429,-15.191 l 21.231,11.578 c -9.18,14.293 -24.828,26.414 -49.66,26.414 -35.082,0 -63.867,-24.246 -63.867,-62.422 0,-37.988 28.785,-62.594 63.867,-62.594 21.773,0 38.863,9.043 51.097,22.797 v 46.879 h -59.222 v -20.902" /><path
         id="path58"
         style="fill:#1b4d37;fill-opacity:1;fill-rule:nonzero;stroke:none"
         d="m 708.953,373.402 h 83.613 v 21.024 H 733.34 v 27.75 h 55.742 v 20.902 H 733.34 v 31.235 h 59.226 v 21.023 H 708.953 V 373.402" /><path
         id="path60"
         style="fill:#1b4d37;fill-opacity:1;fill-rule:nonzero;stroke:none"
         d="m 802.855,109.23 v -7.406 h 5.477 c 2.043,0 3.598,1.567 3.598,3.621 0,2.223 -1.555,3.785 -3.598,3.785 z m 8.75,-17.687 -5.152,7.8984 h -3.598 V 91.543 h -2.617 v 19.992 h 8.094 c 3.434,0 6.297,-2.387 6.297,-6.09 0,-4.441 -3.926,-5.9216 -5.07,-5.9216 l 5.312,-7.9804 z m -19.785,10.035 c 0,-8.3085 6.703,-15.1405 15.043,-15.1405 8.254,0 14.957,6.832 14.957,15.1405 0,8.399 -6.703,15.059 -14.957,15.059 -8.34,0 -15.043,-6.66 -15.043,-15.059 z m -2.289,0 c 0,9.711 7.766,17.449 17.332,17.449 9.645,0 17.328,-7.738 17.328,-17.449 0,-9.6249 -7.683,-17.4413 -17.328,-17.4413 -9.566,0 -17.332,7.8164 -17.332,17.4413" /><path
         id="path62"
         style="fill:#1b4d37;fill-opacity:1;fill-rule:nonzero;stroke:none"
         d="m 175.383,202.695 38.875,97.989 v -97.989 h 27.871 v 135.868 h -40.477 l -32.785,-84.739 -32.781,84.739 H 95.8086 V 202.695 H 123.68 v 97.989 l 38.879,-97.989 h 12.824" /><path
         id="path64"
         style="fill:#1b4d37;fill-opacity:1;fill-rule:nonzero;stroke:none"
         d="m 320.449,310.453 22.137,-62.469 h -44.477 z m -31.144,-83.371 h 62.289 l 8.777,-24.387 H 389.93 L 338.32,338.563 H 302.578 L 250.77,202.695 h 29.753 l 8.782,24.387" /><path
         id="path66"
         style="fill:#1b4d37;fill-opacity:1;fill-rule:nonzero;stroke:none"
         d="m 588.887,228.719 c -23.953,0 -39.336,19.355 -39.336,44.617 0,25.469 15.383,44.625 39.336,44.625 23.949,0 39.527,-19.156 39.527,-44.625 0,-25.262 -15.578,-44.617 -39.527,-44.617 z m 67.957,44.617 c 0,40.957 -28.625,70.297 -67.957,70.297 -39.145,0 -67.766,-29.34 -67.766,-70.297 0,-40.949 28.621,-70.289 67.766,-70.289 39.332,0 67.957,29.34 67.957,70.289" /><path
         id="path68"
         style="fill:#1b4d37;fill-opacity:1;fill-rule:nonzero;stroke:none"
         d="m 764.695,250.566 -60.652,87.997 h -33.41 V 202.695 h 27.871 v 91.258 l 62.414,-91.258 h 31.648 v 135.868 h -27.871 v -87.997" /><path
         id="path70"
         style="fill:#1b4d37;fill-opacity:1;fill-rule:nonzero;stroke:none"
         d="m 459.813,288.641 c -15.497,3.675 -26.766,6.543 -26.766,15.738 0,8.176 6.844,13.902 19.723,13.902 13.078,0 27.566,-4.699 38.433,-14.922 l 15.899,21.258 c -13.282,12.473 -30.993,19.016 -52.325,19.016 -31.589,0 -50.91,-18.403 -50.91,-41.094 0,-30.461 28.172,-36.594 50.11,-41.703 15.496,-3.68 27.168,-7.156 27.168,-17.375 0,-7.77 -7.649,-15.336 -23.348,-15.336 -18.512,0 -33.203,8.383 -42.66,18.398 l -15.699,-22.078 c 12.679,-12.879 31.195,-21.668 56.953,-21.668 36.222,0 53.73,18.809 53.73,43.746 0,30.258 -28.172,37.004 -50.308,42.118" /></g></g></svg>